<?xml version="1.0" encoding="utf-8"?>
<svg xmlns="http://www.w3.org/2000/svg" style="margin: auto; background: none; display: block; shape-rendering: auto;" width="280" height="250" preserveAspectRatio="xMidYMid">
<style type="text/css">
  text {
    text-anchor: middle; font-size: 15px; opacity: 0;
  }
</style>
<g style="transform-origin: 140px 125px; transform: scale(0.882353);">
<g transform="translate(140,125)">
  <g transform="translate(-14,-21)"><g class="path" style="transform: matrix(1, 0, 0, 1, 0, 14.925); opacity: 0.05; transform-origin: -117.515px 0.362432px; animation: 1s linear 0s 1 normal forwards running float-btt-in-8f38c175-93f2-4bf1-870c-e0baf4360913;"><path d="M9.88-9.40L9.88-9.40L9.88-9.40Q8.53-9.98 6.96-9.98L6.96-9.98L6.96-9.98Q5.39-9.98 4.41-8.98L4.41-8.98L4.41-8.98Q3.43-7.97 3.43-6.36L3.43-6.36L3.06-6.36L3.06-6.36Q3.06-8.13 4.15-9.24L4.15-9.24L4.15-9.24Q5.24-10.35 6.94-10.35L6.94-10.35L6.94-10.35Q8.30-10.35 9.88-9.83L9.88-9.83L9.88-9.83Q11.70-9.16 13.82-9.16L13.82-9.16L13.82-8.81L13.82-8.81Q12.55-8.81 11.78-8.93L11.78-8.93L11.78-8.93Q11.76-8.86 11.66-8.36L11.66-8.36L11.66-8.36Q11.03-5.58 10.64-3.93L10.64-3.93L15.20-3.93L16.93-11.31L17.29-11.31L14.91-1.09L14.91-1.09Q14.76-0.46 14.76-0.24L14.76-0.24L14.76-0.24Q14.76 0.48 15.42 0.48L15.42 0.48L15.42 0.48Q15.90 0.48 16.25-0.02L16.25-0.02L16.49 0.19L16.49 0.19Q16.37 0.41 16.07 0.60L16.07 0.60L16.07 0.60Q15.76 0.80 15.33 0.80L15.33 0.80L15.33 0.80Q14.89 0.80 14.65 0.51L14.65 0.51L14.65 0.51Q14.40 0.22 14.40-0.19L14.40-0.19L14.60-1.31L15.13-3.62L10.56-3.62L10.56-3.62Q10.37-2.91 10.18-2.07L10.18-2.07L10.18-2.07Q10.00-1.24 9.73-0.44L9.73-0.44L9.73-0.44Q9.47 0.36 9.01 1.21L9.01 1.21L9.01 1.21Q8.55 2.06 7.98 2.59L7.98 2.59L7.98 2.59Q7.41 3.13 6.55 3.48L6.55 3.48L6.55 3.48Q5.70 3.83 4.70 3.83L4.70 3.83L4.70 3.83Q3.71 3.83 2.82 3.45L2.82 3.45L2.82 3.45Q1.94 3.08 1.34 2.41L1.34 2.41L1.34 2.41Q0.32 1.24 0.32-0.43L0.32-0.43L0.32-0.43Q0.32-0.70 0.34-0.97L0.34-0.97L0.71-0.92L0.71-0.92Q0.70-0.68 0.70-0.44L0.70-0.44L0.70-0.44Q0.70 1.14 1.66 2.20L1.66 2.20L1.66 2.20Q2.62 3.26 4.25 3.26L4.25 3.26L4.25 3.26Q5.88 3.26 6.55 2.40L6.55 2.40L6.55 2.40Q7.21 1.53 7.81-0.94L7.81-0.94L7.81-0.94Q8.42-3.40 9.88-9.40" fill="#3be8b0" stroke="none" stroke-width="none" transform="translate(-126.31997680664062,4.102432197122022)" style="fill: rgb(59, 232, 176);"></path></g><g class="path" style="transform: matrix(1, 0, 0, 1, 0, 14.925); opacity: 0.05; transform-origin: -106.795px 0.872432px; animation: 1s linear 0.0194118s 1 normal forwards running float-btt-in-8f38c175-93f2-4bf1-870c-e0baf4360913;"><path d="M20.94-0.46L20.94-0.46Q20.43 0.15 19.67 0.15L19.67 0.15L19.67 0.15Q18.90 0.15 18.47-0.24L18.47-0.24L18.47-0.24Q18.04-0.63 18.04-1.26L18.04-1.26L18.04-1.26Q18.04-1.48 18.31-3.11L18.31-3.11L18.87-6.15L18.16-6.15L18.19-6.46L18.92-6.46L18.92-6.46Q20.18-6.46 20.77-6.56L20.77-6.56L21.01-6.61L19.84-0.19L19.84-0.19Q20.35-0.24 20.69-0.66L20.69-0.66L20.94-0.46" fill="#3be8b0" stroke="none" stroke-width="none" transform="translate(-126.31997680664062,4.102432197122022)" style="fill: rgb(26, 175, 208);"></path></g><g class="path" style="transform: matrix(1, 0, 0, 1, 0, 14.925); opacity: 0.05; transform-origin: -105.995px -5.01757px; animation: 1s linear 0.0388235s 1 normal forwards running float-btt-in-8f38c175-93f2-4bf1-870c-e0baf4360913;"><path d="M19.45-8.25L19.45-8.25L19.45-8.25Q19.09-8.60 19.09-9.11L19.09-9.11L19.09-9.11Q19.09-9.62 19.45-9.99L19.45-9.99L19.45-9.99Q19.80-10.35 20.31-10.35L20.31-10.35L20.31-10.35Q20.82-10.35 21.19-9.99L21.19-9.99L21.19-9.99Q21.56-9.62 21.56-9.11L21.56-9.11L21.56-9.11Q21.56-8.60 21.19-8.25L21.19-8.25L21.19-8.25Q20.82-7.89 20.31-7.89L20.31-7.89L20.31-7.89Q19.80-7.89 19.45-8.25" fill="#3be8b0" stroke="none" stroke-width="none" transform="translate(-126.31997680664062,4.102432197122022)" style="fill: rgb(106, 103, 206);"></path></g><g class="path" style="transform: matrix(1, 0, 0, 1, 0, 14.925); opacity: 0.05; transform-origin: -103.405px 3.92243px; animation: 1s linear 0.0582353s 1 normal forwards running float-btt-in-8f38c175-93f2-4bf1-870c-e0baf4360913;"><path d="M22.30-0.22L22.30-0.22L22.30-0.22Q21.95-0.58 21.95-1.09L21.95-1.09L21.95-1.09Q21.95-1.60 22.30-1.96L22.30-1.96L22.30-1.96Q22.66-2.33 23.17-2.33L23.17-2.33L23.17-2.33Q23.68-2.33 24.05-1.96L24.05-1.96L24.05-1.96Q24.41-1.60 24.41-1.09L24.41-1.09L24.41-1.09Q24.41-0.26 23.67 0.66L23.67 0.66L23.67 0.66Q22.93 1.58 21.57 1.97L21.57 1.97L21.42 1.62L21.42 1.62Q22.18 1.36 22.72 0.98L22.72 0.98L22.72 0.98Q23.26 0.60 23.41 0.34L23.41 0.34L23.56 0.07L23.56 0.07Q23.41 0.14 23.17 0.14L23.17 0.14L23.17 0.14Q22.66 0.14 22.30-0.22" fill="#3be8b0" stroke="none" stroke-width="none" transform="translate(-126.31997680664062,4.102432197122022)" style="fill: rgb(255, 185, 0);"></path></g><g class="path" style="transform: matrix(1, 0, 0, 1, 0, 14.925); opacity: 0.05; transform-origin: -91.25px 0.502432px; animation: 1s linear 0.0776471s 1 normal forwards running float-btt-in-8f38c175-93f2-4bf1-870c-e0baf4360913;"><path d="M33.75-10.00L33.75-10.00L33.75-10.00Q32.13-10.00 31.32-9.11L31.32-9.11L31.32-9.11Q30.52-8.23 30.52-6.27L30.52-6.27L30.12-6.27L30.12-6.27Q30.12-10.35 33.64-10.35L33.64-10.35L33.64-10.35Q34.78-10.35 36.86-9.49L36.86-9.49L36.86-9.49Q38.93-8.62 40.02-8.62L40.02-8.62L40.02-8.23L40.02-8.23Q39.58-8.23 39.02-8.35L39.02-8.35L39.02-8.35Q38.90-8.31 38.60-7.96L38.60-7.96L38.60-7.96Q38.30-7.62 38.05-7.17L38.05-7.17L38.05-7.17Q37.33-5.88 36.79-3.88L36.79-3.88L38.62-3.88L38.59-3.57L36.70-3.57L36.70-3.57Q36.58-3.18 36.43-2.50L36.43-2.50L36.43-2.50Q35.73 0.54 34.96 1.84L34.96 1.84L34.96 1.84Q34.19 3.15 32.69 3.15L32.69 3.15L32.69 3.15Q31.79 3.15 31.45 2.94L31.45 2.94L31.62 2.58L31.62 2.58Q31.86 2.82 32.79 2.82L32.79 2.82L32.79 2.82Q32.91 2.82 33.18 2.79L33.18 2.79L34.39-2.45L34.39-2.45Q34.44-2.67 34.54-3.08L34.54-3.08L34.54-3.08Q34.65-3.49 34.66-3.57L34.66-3.57L32.81-3.57L32.84-3.88L34.73-3.88L34.73-3.88Q35.39-6.38 36.05-7.52L36.05-7.52L36.05-7.52Q36.70-8.67 37.59-8.79L37.59-8.79L37.59-8.79Q37.38-8.87 36.68-9.18L36.68-9.18L36.68-9.18Q35.97-9.49 35.67-9.61L35.67-9.61L35.67-9.61Q34.63-10.00 33.75-10.00" fill="#3be8b0" stroke="none" stroke-width="none" transform="translate(-126.31997680664062,4.102432197122022)" style="fill: rgb(252, 99, 107);"></path></g><g class="path" style="transform: matrix(1, 0, 0, 1, 0, 14.925); opacity: 0.05; transform-origin: -79.04px 0.872432px; animation: 1s linear 0.0970588s 1 normal forwards running float-btt-in-8f38c175-93f2-4bf1-870c-e0baf4360913;"><path d="M49.61 0.15L49.61 0.15L49.61 0.15Q48.11 0.15 47.97-1.16L47.97-1.16L47.97-1.16Q47.23 0.15 46.09 0.15L46.09 0.15L46.09 0.15Q44.95 0.15 44.28-0.54L44.28-0.54L44.28-0.54Q43.61-1.22 43.61-2.47L43.61-2.47L43.61-2.47Q43.61-4.40 44.56-5.51L44.56-5.51L44.56-5.51Q45.51-6.61 47.02-6.61L47.02-6.61L47.02-6.61Q48.26-6.61 48.67-5.44L48.67-5.44L48.67-5.44Q48.76-5.95 48.86-6.46L48.86-6.46L48.86-6.46Q50.12-6.46 50.73-6.56L50.73-6.56L50.95-6.61L49.78-0.19L49.78-0.19Q50.29-0.24 50.63-0.66L50.63-0.66L50.88-0.46L50.88-0.46Q50.37 0.15 49.61 0.15zM45.53-1.60L45.53-1.60Q45.53-0.83 45.72-0.54L45.72-0.54L45.72-0.54Q45.92-0.24 46.33-0.24L46.33-0.24L46.33-0.24Q46.73-0.24 47.16-0.68L47.16-0.68L47.16-0.68Q47.72-1.26 48.06-2.14L48.06-2.14L48.06-2.14Q48.11-2.36 48.25-3.20L48.25-3.20L48.25-3.20Q48.40-4.05 48.50-4.59L48.50-4.59L48.50-4.59Q48.45-5.24 48.14-5.71L48.14-5.71L48.14-5.71Q47.84-6.19 47.38-6.19L47.38-6.19L47.38-6.19Q46.55-6.19 46.04-4.70L46.04-4.70L46.04-4.70Q45.53-3.21 45.53-1.60L45.53-1.60" fill="#3be8b0" stroke="none" stroke-width="none" transform="translate(-126.31997680664062,4.102432197122022)" style="fill: rgb(59, 232, 176);"></path></g><g class="path" style="transform: matrix(1, 0, 0, 1, 0, 14.925); opacity: 0.05; transform-origin: -68.5px 0.872432px; animation: 1s linear 0.116471s 1 normal forwards running float-btt-in-8f38c175-93f2-4bf1-870c-e0baf4360913;"><path d="M58.31-0.19L58.31-0.19L58.31-0.19Q58.72-0.19 59.16-0.66L59.16-0.66L59.42-0.46L59.42-0.46Q59.30-0.22 58.89-0.03L58.89-0.03L58.89-0.03Q58.48 0.15 57.99 0.15L57.99 0.15L57.99 0.15Q56.44 0.15 56.44-1.24L56.44-1.24L56.44-1.24Q56.44-1.84 56.75-3.37L56.75-3.37L56.75-3.37Q57.05-4.90 57.05-5.37L57.05-5.37L57.05-5.37Q57.05-6.10 56.36-6.10L56.36-6.10L56.36-6.10Q55.30-6.10 54.59-3.40L54.59-3.40L53.98 0L51.94 0L53.06-6.27L53.06-6.27Q52.55-6.22 52.21-5.80L52.21-5.80L51.95-6.00L51.95-6.00Q52.46-6.61 53.24-6.61L53.24-6.61L53.24-6.61Q54.01-6.61 54.43-6.22L54.43-6.22L54.43-6.22Q54.86-5.83 54.86-5.12L54.86-5.12L54.86-5.07L54.86-5.07Q55.52-6.61 56.87-6.61L56.87-6.61L56.87-6.61Q57.82-6.61 58.37-6.09L58.37-6.09L58.37-6.09Q58.92-5.58 58.97-4.64L58.97-4.64L58.97-4.64Q59.30-5.58 59.79-6.09L59.79-6.09L59.79-6.09Q60.28-6.61 61.22-6.61L61.22-6.61L61.22-6.61Q62.15-6.61 62.71-6.04L62.71-6.04L62.71-6.04Q63.27-5.47 63.27-4.47L63.27-4.47L63.27-4.47Q63.27-3.94 62.95-2.44L62.95-2.44L62.95-2.44Q62.63-0.94 62.59-0.19L62.59-0.19L62.59-0.19Q63.00-0.19 63.44-0.66L63.44-0.66L63.70-0.46L63.70-0.46Q63.58-0.22 63.17-0.03L63.17-0.03L63.17-0.03Q62.76 0.15 62.27 0.15L62.27 0.15L62.27 0.15Q60.72 0.15 60.72-1.24L60.72-1.24L60.72-1.24Q60.72-1.84 61.03-3.37L61.03-3.37L61.03-3.37Q61.34-4.90 61.34-5.37L61.34-5.37L61.34-5.37Q61.34-6.10 60.64-6.10L60.64-6.10L60.64-6.10Q59.42-6.10 58.67-2.47L58.67-2.47L58.67-2.47Q58.34-0.92 58.31-0.19" fill="#3be8b0" stroke="none" stroke-width="none" transform="translate(-126.31997680664062,4.102432197122022)" style="fill: rgb(26, 175, 208);"></path></g><g class="path" style="transform: matrix(1, 0, 0, 1, 0, 14.925); opacity: 0.05; transform-origin: -47.04px 0.337432px; animation: 1s linear 0.135882s 1 normal forwards running float-btt-in-8f38c175-93f2-4bf1-870c-e0baf4360913;"><path d="M88.84 1.39L89.06 1.68L89.06 1.68Q88.42 2.33 87.39 2.33L87.39 2.33L87.39 2.33Q86.36 2.33 85.75 1.66L85.75 1.66L85.75 1.66Q85.14 0.99 85.14-0.11L85.14-0.11L85.14-0.11Q85.14-1.21 85.53-2.64L85.53-2.64L86.29-5.15L86.29-5.15Q84.86-3.35 83.67-1.70L83.67-1.70L83.67-1.70Q81.33 1.55 80.50 2.65L80.50 2.65L80.19 2.57L79.53-5.66L78.17-3.18L78.17-3.18Q76.23 0.48 74.93 1.64L74.93 1.64L74.93 1.64Q73.63 2.81 71.47 2.81L71.47 2.81L71.47 2.81Q69.63 2.81 68.42 1.50L68.42 1.50L68.42 1.50Q67.47 0.43 67.47-1.07L67.47-1.07L67.47-1.07Q67.47-1.34 67.51-1.63L67.51-1.63L67.85-1.60L67.85-1.60Q67.81-1.33 67.81-1.07L67.81-1.07L67.81-1.07Q67.81 0.31 68.68 1.26L68.68 1.26L68.68 1.26Q69.78 2.47 71.47 2.47L71.47 2.47L71.47 2.47Q73.49 2.47 74.73 1.33L74.73 1.33L74.73 1.33Q75.97 0.20 77.86-3.33L77.86-3.33L80.92-8.89L80.92-8.89Q79.12-8.93 77.43-9.46L77.43-9.46L77.43-9.46Q75.73-10.00 74.40-10.00L74.40-10.00L74.40-10.00Q73.07-10.00 72.17-9.06L72.17-9.06L72.17-9.06Q71.26-8.13 71.26-6.65L71.26-6.65L70.92-6.65L70.92-6.65Q70.92-8.28 71.92-9.31L71.92-9.31L71.92-9.31Q72.91-10.34 74.49-10.34L74.49-10.34L74.49-10.34Q75.77-10.34 77.53-9.78L77.53-9.78L77.53-9.78Q79.29-9.23 81.33-9.23L81.33-9.23L82.04-0.05L82.38-0.53L82.38-0.53Q85.97-5.46 87.92-7.57L87.92-7.57L87.92-7.57Q89.88-9.69 91.09-9.69L91.09-9.69L91.09-9.35L91.09-9.35Q90.56-9.35 89.74-8.77L89.74-8.77L89.74-8.77Q89.62-8.40 88.94-6.18L88.94-6.18L88.94-6.18Q88.26-3.96 87.73-2.30L87.73-2.30L87.73-2.30Q87.19-0.65 87.19 0.41L87.19 0.41L87.19 0.41Q87.19 1.46 87.57 1.97L87.57 1.97L87.57 1.97Q87.92 1.97 88.24 1.83L88.24 1.83L88.24 1.83Q88.55 1.68 88.71 1.53L88.71 1.53L88.84 1.39" fill="#3be8b0" stroke="none" stroke-width="none" transform="translate(-126.31997680664062,4.102432197122022)" style="fill: rgb(106, 103, 206);"></path></g><g class="path" style="transform: matrix(1, 0, 0, 1, 0, 14.925); opacity: 0.05; transform-origin: -32.46px 0.872432px; animation: 1s linear 0.155294s 1 normal forwards running float-btt-in-8f38c175-93f2-4bf1-870c-e0baf4360913;"><path d="M93.19 0.15L93.19 0.15Q91.89 0.15 91.21-0.50L91.21-0.50L91.21-0.50Q90.53-1.16 90.53-2.15L90.53-2.15L90.53-2.15Q90.53-3.15 90.70-3.85L90.70-3.85L90.70-3.85Q90.88-4.56 91.29-5.21L91.29-5.21L91.29-5.21Q91.70-5.87 92.52-6.24L92.52-6.24L92.52-6.24Q93.35-6.61 94.58-6.61L94.58-6.61L94.58-6.61Q95.81-6.61 96.50-5.96L96.50-5.96L96.50-5.96Q97.19-5.30 97.19-4.17L97.19-4.17L97.19-4.17Q97.19-2.23 96.16-1.04L96.16-1.04L96.16-1.04Q95.13 0.15 93.19 0.15L93.19 0.15zM92.45-1.60L92.45-1.60L92.45-1.60Q92.45-0.24 93.24-0.24L93.24-0.24L93.24-0.24Q94.03-0.24 94.65-1.61L94.65-1.61L94.65-1.61Q95.27-2.98 95.27-4.86L95.27-4.86L95.27-4.86Q95.27-6.29 94.49-6.29L94.49-6.29L94.49-6.29Q93.72-6.29 93.08-4.99L93.08-4.99L93.08-4.99Q92.45-3.69 92.45-1.60" fill="#3be8b0" stroke="none" stroke-width="none" transform="translate(-126.31997680664062,4.102432197122022)" style="fill: rgb(255, 185, 0);"></path></g><g class="path" style="transform: matrix(1, 0, 0, 1, 0, 14.925); opacity: 0.05; transform-origin: -24.645px -1.33257px; animation: 1s linear 0.174706s 1 normal forwards running float-btt-in-8f38c175-93f2-4bf1-870c-e0baf4360913;"><path d="M104.40-0.19L104.40-0.19L104.40-0.19Q104.81-0.19 105.25-0.66L105.25-0.66L105.50-0.46L105.50-0.46Q105.38-0.22 104.98-0.03L104.98-0.03L104.98-0.03Q104.57 0.15 104.07 0.15L104.07 0.15L104.07 0.15Q102.53 0.15 102.53-1.24L102.53-1.24L102.53-1.24Q102.53-1.84 102.83-3.37L102.83-3.37L102.83-3.37Q103.14-4.90 103.14-5.37L103.14-5.37L103.14-5.37Q103.14-6.10 102.44-6.10L102.44-6.10L102.44-6.10Q101.86-6.10 101.33-5.32L101.33-5.32L101.33-5.32Q100.79-4.54 100.45-3.20L100.45-3.20L99.89 0L97.85 0L99.74-10.68L99.74-10.68Q99.23-10.63 98.89-10.20L98.89-10.20L98.63-10.40L98.63-10.40Q99.14-11.02 99.92-11.02L99.92-11.02L99.92-11.02Q100.69-11.02 101.12-10.63L101.12-10.63L101.12-10.63Q101.54-10.23 101.54-9.52L101.54-9.52L101.54-9.52Q101.54-9.38 101.51-9.08L101.51-9.08L100.79-5.05L100.79-5.05Q101.49-6.61 102.95-6.61L102.95-6.61L102.95-6.61Q103.96-6.61 104.52-6.04L104.52-6.04L104.52-6.04Q105.08-5.47 105.08-4.47L105.08-4.47L105.08-4.47Q105.08-3.94 104.75-2.44L104.75-2.44L104.75-2.44Q104.43-0.94 104.40-0.19" fill="#3be8b0" stroke="none" stroke-width="none" transform="translate(-126.31997680664062,4.102432197122022)" style="fill: rgb(252, 99, 107);"></path></g><g class="path" style="transform: matrix(1, 0, 0, 1, 0, 14.925); opacity: 0.05; transform-origin: -18.295px 0.872432px; animation: 1s linear 0.194118s 1 normal forwards running float-btt-in-8f38c175-93f2-4bf1-870c-e0baf4360913;"><path d="M109.45-0.46L109.45-0.46Q108.94 0.15 108.17 0.15L108.17 0.15L108.17 0.15Q107.41 0.15 106.97-0.24L106.97-0.24L106.97-0.24Q106.54-0.63 106.54-1.26L106.54-1.26L106.54-1.26Q106.54-1.48 106.81-3.11L106.81-3.11L107.37-6.15L106.66-6.15L106.69-6.46L107.42-6.46L107.42-6.46Q108.68-6.46 109.28-6.56L109.28-6.56L109.51-6.61L108.34-0.19L108.34-0.19Q108.85-0.24 109.19-0.66L109.19-0.66L109.45-0.46" fill="#3be8b0" stroke="none" stroke-width="none" transform="translate(-126.31997680664062,4.102432197122022)" style="fill: rgb(59, 232, 176);"></path></g><g class="path" style="transform: matrix(1, 0, 0, 1, 0, 14.925); opacity: 0.05; transform-origin: -17.495px -5.01757px; animation: 1s linear 0.213529s 1 normal forwards running float-btt-in-8f38c175-93f2-4bf1-870c-e0baf4360913;"><path d="M107.95-8.25L107.95-8.25L107.95-8.25Q107.59-8.60 107.59-9.11L107.59-9.11L107.59-9.11Q107.59-9.62 107.95-9.99L107.95-9.99L107.95-9.99Q108.31-10.35 108.82-10.35L108.82-10.35L108.82-10.35Q109.33-10.35 109.69-9.99L109.69-9.99L109.69-9.99Q110.06-9.62 110.06-9.11L110.06-9.11L110.06-9.11Q110.06-8.60 109.69-8.25L109.69-8.25L109.69-8.25Q109.33-7.89 108.82-7.89L108.82-7.89L108.82-7.89Q108.31-7.89 107.95-8.25" fill="#3be8b0" stroke="none" stroke-width="none" transform="translate(-126.31997680664062,4.102432197122022)" style="fill: rgb(26, 175, 208);"></path></g><g class="path" style="transform: matrix(1, 0, 0, 1, 0, 14.925); opacity: 0.05; transform-origin: -13.235px -0.387568px; animation: 1s linear 0.232941s 1 normal forwards running float-btt-in-8f38c175-93f2-4bf1-870c-e0baf4360913;"><path d="M110.60-6.46L111.47-6.46L111.93-8.98L111.93-8.98Q113.19-8.98 113.80-9.08L113.80-9.08L114.02-9.13L114.02-9.13Q113.78-7.94 113.49-6.46L113.49-6.46L115.60-6.46L115.57-6.15L113.44-6.15L113.44-6.15Q112.59-1.77 112.59-0.87L112.59-0.87L112.59-0.87Q112.59-0.32 113.17-0.32L113.17-0.32L113.17-0.32Q113.75-0.32 114.22-1.05L114.22-1.05L114.22-1.05Q114.70-1.79 114.90-2.64L114.90-2.64L115.21-2.53L115.21-2.53Q114.58 0.15 112.61 0.15L112.61 0.15L112.61 0.15Q111.79 0.15 111.25-0.30L111.25-0.30L111.25-0.30Q110.70-0.75 110.70-1.56L110.70-1.56L110.70-1.56Q110.70-2.36 111.40-6.15L111.40-6.15L110.57-6.15L110.60-6.46" fill="#3be8b0" stroke="none" stroke-width="none" transform="translate(-126.31997680664062,4.102432197122022)" style="fill: rgb(106, 103, 206);"></path></g><g class="path" style="transform: matrix(1, 0, 0, 1, 0, 14.925); opacity: 0.05; transform-origin: -9.16498px 3.00743px; animation: 1s linear 0.252353s 1 normal forwards running float-btt-in-8f38c175-93f2-4bf1-870c-e0baf4360913;"><path d="M116.28-0.22L116.28-0.22L116.28-0.22Q115.92-0.58 115.92-1.09L115.92-1.09L115.92-1.09Q115.92-1.60 116.28-1.96L116.28-1.96L116.28-1.96Q116.64-2.33 117.15-2.33L117.15-2.33L117.15-2.33Q117.66-2.33 118.02-1.96L118.02-1.96L118.02-1.96Q118.39-1.60 118.39-1.09L118.39-1.09L118.39-1.09Q118.39-0.58 118.02-0.22L118.02-0.22L118.02-0.22Q117.66 0.14 117.15 0.14L117.15 0.14L117.15 0.14Q116.64 0.14 116.28-0.22" fill="#3be8b0" stroke="none" stroke-width="none" transform="translate(-126.31997680664062,4.102432197122022)" style="fill: rgb(255, 185, 0);"></path></g><g class="path" style="transform: matrix(1, 0, 0, 1, 0, 14.925); opacity: 0.05; transform-origin: 5.63503px -0.167568px; animation: 1s linear 0.271765s 1 normal forwards running float-btt-in-8f38c175-93f2-4bf1-870c-e0baf4360913;"><path d="M126.18-3.09L126.18-3.09L126.18-3.09Q125.72-3.45 125.36-4.18L125.36-4.18L125.36-4.18Q125.00-4.91 125.00-5.83L125.00-5.83L125.00-5.83Q125.00-6.75 125.29-7.53L125.29-7.53L125.29-7.53Q125.58-8.31 126.15-8.95L126.15-8.95L126.15-8.95Q126.72-9.59 127.67-9.97L127.67-9.97L127.67-9.97Q128.62-10.35 129.69-10.35L129.69-10.35L129.69-10.35Q130.76-10.35 131.63-10.19L131.63-10.19L131.63-10.19Q132.50-10.03 132.99-9.85L132.99-9.85L132.99-9.85Q133.48-9.67 133.87-9.51L133.87-9.51L133.87-9.51Q134.25-9.35 134.49-9.26L134.49-9.26L134.49-9.26Q134.72-9.16 134.78-9.15L134.78-9.15L134.78-9.15Q134.83-9.13 135.05-9.04L135.05-9.04L135.05-9.04Q135.27-8.96 135.35-8.94L135.35-8.94L135.35-8.94Q135.42-8.93 135.62-8.86L135.62-8.86L135.62-8.86Q135.81-8.79 135.92-8.77L135.92-8.77L135.92-8.77Q136.03-8.76 136.22-8.71L136.22-8.71L136.22-8.71Q136.41-8.67 136.54-8.66L136.54-8.66L136.54-8.66Q136.68-8.65 136.87-8.64L136.87-8.64L136.87-8.64Q137.05-8.62 137.22-8.62L137.22-8.62L137.22-8.62Q138.06-8.62 138.68-8.90L138.68-8.90L138.68-8.90Q139.30-9.18 139.58-9.52L139.58-9.52L139.58-9.52Q139.86-9.86 140.03-10.30L140.03-10.30L140.03-10.30Q140.23-10.85 140.23-11.29L140.23-11.29L140.61-11.29L140.61-11.29Q140.61-10.88 140.39-10.29L140.39-10.29L140.39-10.29Q140.18-9.71 139.87-9.31L139.87-9.31L139.87-9.31Q139.55-8.91 138.86-8.59L138.86-8.59L138.86-8.59Q138.16-8.26 137.20-8.26L137.20-8.26L137.20-8.26Q136.24-8.26 135.27-8.57L135.27-8.57L135.27-8.57Q134.11-6.94 132.84-1.99L132.84-1.99L132.84-1.99Q132.21 0.49 131.03 1.62L131.03 1.62L131.03 1.62Q129.85 2.75 127.61 2.75L127.61 2.75L127.61 2.75Q125.38 2.75 124.27 1.39L124.27 1.39L124.27 1.39Q123.30 0.19 123.30-1.41L123.30-1.41L123.30-1.41Q123.30-1.62 123.32-1.82L123.32-1.82L123.71-1.82L123.71-1.58L123.71-1.58Q123.71-0.41 124.34 0.71L124.34 0.71L124.34 0.71Q124.61 1.19 124.99 1.54L124.99 1.54L124.99 1.54Q125.38 1.89 126.02 2.13L126.02 2.13L126.02 2.13Q126.67 2.36 127.47 2.36L127.47 2.36L127.47 2.36Q128.79 2.36 129.57 1.29L129.57 1.29L129.57 1.29Q130.34 0.22 131.06-2.85L131.06-2.85L131.06-2.85Q131.78-5.92 132.54-7.23L132.54-7.23L132.54-7.23Q133.30-8.55 134.74-8.76L134.74-8.76L134.74-8.76Q134.30-8.93 133.81-9.14L133.81-9.14L133.81-9.14Q133.31-9.35 132.86-9.51L132.86-9.51L132.86-9.51Q132.41-9.67 131.57-9.83L131.57-9.83L131.57-9.83Q130.73-10.00 129.69-10.00L129.69-10.00L129.69-10.00Q128.66-10.00 127.76-9.62L127.76-9.62L127.76-9.62Q126.87-9.25 126.38-8.64L126.38-8.64L126.38-8.64Q125.39-7.45 125.39-5.88L125.39-5.88L125.39-5.88Q125.39-5.00 125.72-4.33L125.72-4.33L125.72-4.33Q126.04-3.66 126.50-3.33L126.50-3.33L126.50-3.33Q127.43-2.70 128.20-2.62L128.20-2.62L128.52-2.58L128.42-2.21L128.42-2.21Q127.99-2.21 127.32-2.47L127.32-2.47L127.32-2.47Q126.65-2.74 126.18-3.09" fill="#3be8b0" stroke="none" stroke-width="none" transform="translate(-126.31997680664062,4.102432197122022)" style="fill: rgb(252, 99, 107);"></path></g><g class="path" style="transform: matrix(1, 0, 0, 1, 0, 14.925); opacity: 0.05; transform-origin: 17.635px -1.33257px; animation: 1s linear 0.291176s 1 normal forwards running float-btt-in-8f38c175-93f2-4bf1-870c-e0baf4360913;"><path d="M146.68-0.19L146.68-0.19L146.68-0.19Q147.08-0.19 147.53-0.66L147.53-0.66L147.78-0.46L147.78-0.46Q147.66-0.22 147.25-0.03L147.25-0.03L147.25-0.03Q146.85 0.15 146.35 0.15L146.35 0.15L146.35 0.15Q144.81 0.15 144.81-1.24L144.81-1.24L144.81-1.24Q144.81-1.84 145.11-3.37L145.11-3.37L145.11-3.37Q145.42-4.90 145.42-5.37L145.42-5.37L145.42-5.37Q145.42-6.10 144.72-6.10L144.72-6.10L144.72-6.10Q144.14-6.10 143.61-5.32L143.61-5.32L143.61-5.32Q143.07-4.54 142.73-3.20L142.73-3.20L142.17 0L140.13 0L142.02-10.68L142.02-10.68Q141.51-10.63 141.17-10.20L141.17-10.20L140.91-10.40L140.91-10.40Q141.42-11.02 142.20-11.02L142.20-11.02L142.20-11.02Q142.97-11.02 143.40-10.63L143.40-10.63L143.40-10.63Q143.82-10.23 143.82-9.52L143.82-9.52L143.82-9.52Q143.82-9.38 143.79-9.08L143.79-9.08L143.07-5.05L143.07-5.05Q143.77-6.61 145.23-6.61L145.23-6.61L145.23-6.61Q146.23-6.61 146.80-6.04L146.80-6.04L146.80-6.04Q147.36-5.47 147.36-4.47L147.36-4.47L147.36-4.47Q147.36-3.94 147.03-2.44L147.03-2.44L147.03-2.44Q146.71-0.94 146.68-0.19" fill="#3be8b0" stroke="none" stroke-width="none" transform="translate(-126.31997680664062,4.102432197122022)" style="fill: rgb(59, 232, 176);"></path></g><g class="path" style="transform: matrix(1, 0, 0, 1, 0, 14.925); opacity: 0.05; transform-origin: 25.93px 0.872432px; animation: 1s linear 0.310588s 1 normal forwards running float-btt-in-8f38c175-93f2-4bf1-870c-e0baf4360913;"><path d="M154.58 0.15L154.58 0.15L154.58 0.15Q153.09 0.15 152.95-1.16L152.95-1.16L152.95-1.16Q152.20 0.15 151.06 0.15L151.06 0.15L151.06 0.15Q149.92 0.15 149.25-0.54L149.25-0.54L149.25-0.54Q148.58-1.22 148.58-2.47L148.58-2.47L148.58-2.47Q148.58-4.40 149.53-5.51L149.53-5.51L149.53-5.51Q150.48-6.61 152.00-6.61L152.00-6.61L152.00-6.61Q153.24-6.61 153.65-5.44L153.65-5.44L153.65-5.44Q153.73-5.95 153.83-6.46L153.83-6.46L153.83-6.46Q155.09-6.46 155.70-6.56L155.70-6.56L155.92-6.61L154.75-0.19L154.75-0.19Q155.26-0.24 155.60-0.66L155.60-0.66L155.86-0.46L155.86-0.46Q155.35 0.15 154.58 0.15zM150.50-1.60L150.50-1.60Q150.50-0.83 150.70-0.54L150.70-0.54L150.70-0.54Q150.89-0.24 151.30-0.24L151.30-0.24L151.30-0.24Q151.71-0.24 152.13-0.68L152.13-0.68L152.13-0.68Q152.69-1.26 153.03-2.14L153.03-2.14L153.03-2.14Q153.09-2.36 153.23-3.20L153.23-3.20L153.23-3.20Q153.37-4.05 153.48-4.59L153.48-4.59L153.48-4.59Q153.43-5.24 153.12-5.71L153.12-5.71L153.12-5.71Q152.81-6.19 152.35-6.19L152.35-6.19L152.35-6.19Q151.52-6.19 151.01-4.70L151.01-4.70L151.01-4.70Q150.50-3.21 150.50-1.60L150.50-1.60" fill="#3be8b0" stroke="none" stroke-width="none" transform="translate(-126.31997680664062,4.102432197122022)" style="fill: rgb(26, 175, 208);"></path></g><g class="path" style="transform: matrix(1, 0, 0, 1, 0, 14.925); opacity: 0.05; transform-origin: 34.355px 0.872432px; animation: 1s linear 0.33s 1 normal forwards running float-btt-in-8f38c175-93f2-4bf1-870c-e0baf4360913;"><path d="M163.39-0.19L163.39-0.19L163.39-0.19Q163.80-0.19 164.24-0.66L164.24-0.66L164.49-0.46L164.49-0.46Q164.37-0.22 163.97-0.03L163.97-0.03L163.97-0.03Q163.56 0.15 163.06 0.15L163.06 0.15L163.06 0.15Q161.52 0.15 161.52-1.24L161.52-1.24L161.52-1.24Q161.52-1.84 161.82-3.37L161.82-3.37L161.82-3.37Q162.13-4.90 162.13-5.37L162.13-5.37L162.13-5.37Q162.13-6.10 161.43-6.10L161.43-6.10L161.43-6.10Q160.87-6.10 160.35-5.37L160.35-5.37L160.35-5.37Q159.83-4.64 159.49-3.37L159.49-3.37L158.92-0.19L158.92-0.19Q159.44-0.24 159.78-0.66L159.78-0.66L160.04-0.46L160.04-0.46Q159.53 0.15 158.76 0.15L158.76 0.15L158.76 0.15Q158.00 0.15 157.56-0.24L157.56-0.24L157.56-0.24Q157.13-0.63 157.13-1.26L157.13-1.26L157.13-1.26Q157.13-1.50 157.40-3.13L157.40-3.13L157.96-6.27L157.96-6.27Q157.45-6.22 157.11-5.80L157.11-5.80L156.86-6.00L156.86-6.00Q157.37-6.61 158.14-6.61L158.14-6.61L158.14-6.61Q158.92-6.61 159.34-6.22L159.34-6.22L159.34-6.22Q159.77-5.83 159.77-5.12L159.77-5.12L159.77-5.02L159.77-5.02Q160.46-6.61 161.94-6.61L161.94-6.61L161.94-6.61Q162.94-6.61 163.51-6.04L163.51-6.04L163.51-6.04Q164.07-5.47 164.07-4.47L164.07-4.47L164.07-4.47Q164.07-3.94 163.74-2.44L163.74-2.44L163.74-2.44Q163.42-0.94 163.39-0.19" fill="#3be8b0" stroke="none" stroke-width="none" transform="translate(-126.31997680664062,4.102432197122022)" style="fill: rgb(106, 103, 206);"></path></g><g class="path" style="transform: matrix(1, 0, 0, 1, 0, 14.925); opacity: 0.05; transform-origin: 42.48px -1.33257px; animation: 1s linear 0.349412s 1 normal forwards running float-btt-in-8f38c175-93f2-4bf1-870c-e0baf4360913;"><path d="M167.74-3.28L167.74-3.28L167.13 0L165.10 0L167.03-10.68L167.03-10.68Q166.52-10.63 166.18-10.20L166.18-10.20L165.92-10.40L165.92-10.40Q166.43-11.02 167.20-11.02L167.20-11.02L167.20-11.02Q167.98-11.02 168.40-10.63L168.40-10.63L168.40-10.63Q168.83-10.23 168.83-9.52L168.83-9.52L168.83-9.52Q168.83-9.38 168.79-9.08L168.79-9.08L168.79-9.08Q168.40-6.92 167.94-4.42L167.94-4.42L167.94-4.42Q168.37-5.46 169.17-6.04L169.17-6.04L169.17-6.04Q169.97-6.61 170.87-6.61L170.87-6.61L170.87-6.61Q171.77-6.61 172.13-6.26L172.13-6.26L172.13-6.26Q172.50-5.90 172.50-5.36L172.50-5.36L172.50-5.36Q172.50-4.83 172.18-4.49L172.18-4.49L172.18-4.49Q171.85-4.15 171.33-4.15L171.33-4.15L171.33-4.15Q170.82-4.15 170.54-4.45L170.54-4.45L170.54-4.45Q170.26-4.74 170.26-5.33L170.26-5.33L170.26-5.33Q170.26-5.92 170.66-6.22L170.66-6.22L170.66-6.22Q169.03-6.04 168.06-3.81L168.06-3.81L168.06-3.81Q168.30-3.84 168.47-3.84L168.47-3.84L168.47-3.84Q169.37-3.84 169.89-3.49L169.89-3.49L169.89-3.49Q170.41-3.13 170.56-2.61L170.56-2.61L170.56-2.61Q170.71-2.09 170.78-1.57L170.78-1.57L170.78-1.57Q170.85-1.05 171.00-0.70L171.00-0.70L171.00-0.70Q171.16-0.34 171.55-0.34L171.55-0.34L171.55-0.34Q171.94-0.34 172.16-0.66L172.16-0.66L172.41-0.46L172.41-0.46Q172.30-0.22 171.89-0.03L171.89-0.03L171.89-0.03Q171.48 0.15 170.84 0.15L170.84 0.15L170.84 0.15Q170.20 0.15 169.72-0.17L169.72-0.17L169.72-0.17Q169.24-0.49 169.05-0.98L169.05-0.98L169.05-0.98Q168.86-1.46 168.74-1.94L168.74-1.94L168.74-1.94Q168.42-3.16 167.74-3.28" fill="#3be8b0" stroke="none" stroke-width="none" transform="translate(-126.31997680664062,4.102432197122022)" style="fill: rgb(255, 185, 0);"></path></g><g class="path" style="transform: matrix(1, 0, 0, 1, 0, 14.925); opacity: 0.05; transform-origin: 49.12px 0.477432px; animation: 1s linear 0.368824s 1 normal forwards running float-btt-in-8f38c175-93f2-4bf1-870c-e0baf4360913;"><path d="M174.61-0.29L174.61-0.29L174.61-0.29Q176.29-0.29 176.29-2.77L176.29-2.77L176.29-2.77Q176.29-3.38 176.11-4.22L176.11-4.22L176.11-4.22Q175.93-5.05 175.90-5.25L175.90-5.25L175.90-5.25Q174.86-4.18 173.57-3.96L173.57-3.96L173.57-4.37L173.57-4.37Q174.79-4.64 175.87-5.76L175.87-5.76L175.87-5.83L175.87-5.83Q175.87-6.24 175.98-6.63L175.98-6.63L175.98-6.63Q176.10-7.02 176.22-7.21L176.22-7.21L176.34-7.40L176.75-7.40L176.75-7.40Q176.75-6.65 176.99-6.03L176.99-6.03L176.99-6.03Q177.23-5.41 177.51-5.02L177.51-5.02L177.51-5.02Q177.80-4.64 178.04-4.02L178.04-4.02L178.04-4.02Q178.28-3.40 178.28-2.65L178.28-2.65L178.28-2.65Q178.28-1.45 177.37-0.65L177.37-0.65L177.37-0.65Q176.46 0.15 175.19 0.15L175.19 0.15L175.19 0.15Q173.91 0.15 173.26-0.43L173.26-0.43L173.26-0.43Q172.60-1.00 172.60-1.76L172.60-1.76L172.60-1.76Q172.60-2.52 172.98-2.85L172.98-2.85L172.98-2.85Q173.35-3.18 173.86-3.18L173.86-3.18L173.86-3.18Q174.37-3.18 174.70-2.85L174.70-2.85L174.70-2.85Q175.03-2.52 175.03-2.00L175.03-2.00L175.03-2.00Q175.03-1.48 174.71-1.12L174.71-1.12L174.71-1.12Q174.39-0.77 173.88-0.77L173.88-0.77L173.88-0.77Q173.66-0.77 173.42-0.83L173.42-0.83L173.42-0.83Q173.79-0.29 174.61-0.29" fill="#3be8b0" stroke="none" stroke-width="none" transform="translate(-126.31997680664062,4.102432197122022)" style="fill: rgb(252, 99, 107);"></path></g><g class="path" style="transform: matrix(1, 0, 0, 1, 0, 14.925); opacity: 0.05; transform-origin: 59.2px -0.812568px; animation: 1s linear 0.388235s 1 normal forwards running float-btt-in-8f38c175-93f2-4bf1-870c-e0baf4360913;"><path d="M186.88-11.02L186.88-11.02L186.88-11.02Q187.49-11.02 187.89-10.56L187.89-10.56L187.89-10.56Q188.29-10.10 188.29-9.18L188.29-9.18L188.29-9.18Q188.29-8.26 187.56-6.46L187.56-6.46L188.21-6.46L188.17-6.15L187.43-6.15L187.43-6.15Q186.85-4.71 186.85-3.96L186.85-3.96L186.54-3.96L186.54-3.96Q186.54-4.85 187.10-6.15L187.10-6.15L186.12-6.15L186.12-6.15Q185.61-3.49 184.81 1.19L184.81 1.19L182.75 1.19L184.06-6.15L183.02-6.15L183.06-6.46L184.11-6.46L184.38-7.92L184.38-7.92Q184.65-9.61 185.22-10.31L185.22-10.31L185.22-10.31Q185.79-11.02 186.88-11.02zM187.97-9.21L187.97-9.21L187.97-9.21Q187.97-9.83 187.69-10.27L187.69-10.27L187.69-10.27Q187.41-10.71 187.00-10.71L187.00-10.71L187.00-10.71Q186.83-10.05 186.17-6.46L186.17-6.46L187.22-6.46L187.22-6.46Q187.97-8.16 187.97-9.21" fill="#3be8b0" stroke="none" stroke-width="none" transform="translate(-126.31997680664062,4.102432197122022)" style="fill: rgb(59, 232, 176);"></path></g><g class="path" style="transform: matrix(1, 0, 0, 1, 0, 14.925); opacity: 0.05; transform-origin: 64.98px 0.872432px; animation: 1s linear 0.407647s 1 normal forwards running float-btt-in-8f38c175-93f2-4bf1-870c-e0baf4360913;"><path d="M190.64 0.15L190.64 0.15Q189.33 0.15 188.65-0.50L188.65-0.50L188.65-0.50Q187.97-1.16 187.97-2.15L187.97-2.15L187.97-2.15Q187.97-3.15 188.15-3.85L188.15-3.85L188.15-3.85Q188.33-4.56 188.73-5.21L188.73-5.21L188.73-5.21Q189.14-5.87 189.97-6.24L189.97-6.24L189.97-6.24Q190.79-6.61 192.02-6.61L192.02-6.61L192.02-6.61Q193.26-6.61 193.94-5.96L193.94-5.96L193.94-5.96Q194.63-5.30 194.63-4.17L194.63-4.17L194.63-4.17Q194.63-2.23 193.60-1.04L193.60-1.04L193.60-1.04Q192.58 0.15 190.64 0.15L190.64 0.15zM189.89-1.60L189.89-1.60L189.89-1.60Q189.89-0.24 190.68-0.24L190.68-0.24L190.68-0.24Q191.47-0.24 192.09-1.61L192.09-1.61L192.09-1.61Q192.71-2.98 192.71-4.86L192.71-4.86L192.71-4.86Q192.71-6.29 191.94-6.29L191.94-6.29L191.94-6.29Q191.17-6.29 190.53-4.99L190.53-4.99L190.53-4.99Q189.89-3.69 189.89-1.60" fill="#3be8b0" stroke="none" stroke-width="none" transform="translate(-126.31997680664062,4.102432197122022)" style="fill: rgb(26, 175, 208);"></path></g><g class="path" style="transform: matrix(1, 0, 0, 1, 0, 14.925); opacity: 0.05; transform-origin: 72.34px 0.797432px; animation: 1s linear 0.427059s 1 normal forwards running float-btt-in-8f38c175-93f2-4bf1-870c-e0baf4360913;"><path d="M195.82-5.80L195.57-6.00L195.57-6.00Q196.08-6.61 196.85-6.61L196.85-6.61L196.85-6.61Q197.63-6.61 198.05-6.22L198.05-6.22L198.05-6.22Q198.48-5.83 198.48-5.12L198.48-5.12L198.48-5.02L198.48-5.02Q199.24-6.61 200.46-6.61L200.46-6.61L200.46-6.61Q201.77-6.61 201.77-5.25L201.77-5.25L201.77-5.25Q201.77-4.69 201.40-4.06L201.40-4.06L201.40-4.06Q201.03-3.43 200.65-2.86L200.65-2.86L200.65-2.86Q200.28-2.30 200.28-1.85L200.28-1.85L199.87-1.85L199.87-1.85Q199.87-2.48 200.60-3.55L200.60-3.55L200.60-3.55Q201.33-4.62 201.33-5.21L201.33-5.21L201.33-5.21Q201.33-5.80 201.10-6.01L201.10-6.01L201.10-6.01Q200.87-6.22 200.42-6.22L200.42-6.22L200.42-6.22Q199.97-6.22 199.54-5.83L199.54-5.83L199.54-5.83Q199.10-5.44 198.82-4.85L198.82-4.85L198.82-4.85Q198.36-3.96 198.20-3.40L198.20-3.40L198.20-3.38L197.59 0L195.55 0L196.67-6.27L196.67-6.27Q196.16-6.22 195.82-5.80L195.82-5.80" fill="#3be8b0" stroke="none" stroke-width="none" transform="translate(-126.31997680664062,4.102432197122022)" style="fill: rgb(106, 103, 206);"></path></g><g class="path" style="transform: matrix(1, 0, 0, 1, 0, 14.925); opacity: 0.05; transform-origin: 82.74px 0.872432px; animation: 1s linear 0.446471s 1 normal forwards running float-btt-in-8f38c175-93f2-4bf1-870c-e0baf4360913;"><path d="M210.21-4.50L210.21-4.50L210.21-4.50Q209.85-4.86 209.85-5.37L209.85-5.37L209.85-5.37Q209.85-5.88 210.21-6.25L210.21-6.25L210.21-6.25Q210.56-6.61 211.01-6.61L211.01-6.61L211.01-6.61Q211.46-6.61 211.78-6.38L211.78-6.38L211.78-6.38Q212.09-6.15 212.23-5.80L212.23-5.80L212.23-5.80Q212.25-5.78 212.25-5.76L212.25-5.76L212.25-5.75L212.25-5.75Q212.45-5.30 212.45-4.46L212.45-4.46L212.45-4.46Q212.45-3.62 212.25-2.92L212.25-2.92L212.25-2.92Q212.06-2.23 211.66-1.50L211.66-1.50L211.66-1.50Q211.26-0.78 210.49-0.31L210.49-0.31L210.49-0.31Q209.73 0.15 208.69 0.15L208.69 0.15L208.69 0.15Q207.66 0.15 206.97-0.53L206.97-0.53L206.97-0.53Q206.28-1.21 206.28-2.09L206.28-2.09L206.28-2.09Q206.28-2.98 206.59-4.28L206.59-4.28L206.59-4.28Q206.91-5.58 206.94-6.27L206.94-6.27L206.94-6.27Q206.67-6.26 206.41-6.08L206.41-6.08L206.41-6.08Q206.16-5.90 206.04-5.73L206.04-5.73L205.92-5.56L205.67-5.76L205.67-5.76Q205.72-5.87 205.82-6.00L205.82-6.00L205.82-6.00Q205.92-6.14 206.34-6.38L206.34-6.38L206.34-6.38Q206.75-6.61 207.38-6.61L207.38-6.61L207.38-6.61Q208.01-6.61 208.39-6.21L208.39-6.21L208.39-6.21Q208.78-5.80 208.78-5.17L208.78-5.17L208.78-5.17Q208.78-4.54 208.44-3.22L208.44-3.22L208.44-3.22Q208.10-1.90 208.10-1.37L208.10-1.37L208.10-1.37Q208.10-0.83 208.34-0.53L208.34-0.53L208.34-0.53Q208.59-0.22 209.05-0.22L209.05-0.22L209.05-0.22Q210.19-0.22 211.12-1.46L211.12-1.46L211.12-1.46Q212.06-2.70 212.06-4.23L212.06-4.23L212.06-4.23Q212.06-4.35 212.02-4.59L212.02-4.59L212.02-4.59Q211.67-4.15 211.11-4.15L211.11-4.15L211.11-4.15Q210.56-4.15 210.21-4.50" fill="#3be8b0" stroke="none" stroke-width="none" transform="translate(-126.31997680664062,4.102432197122022)" style="fill: rgb(255, 185, 0);"></path></g><g class="path" style="transform: matrix(1, 0, 0, 1, 0, 14.925); opacity: 0.05; transform-origin: 88.655px 0.872432px; animation: 1s linear 0.465882s 1 normal forwards running float-btt-in-8f38c175-93f2-4bf1-870c-e0baf4360913;"><path d="M216.39-0.46L216.39-0.46Q215.88 0.15 215.12 0.15L215.12 0.15L215.12 0.15Q214.35 0.15 213.92-0.24L213.92-0.24L213.92-0.24Q213.49-0.63 213.49-1.26L213.49-1.26L213.49-1.26Q213.49-1.48 213.76-3.11L213.76-3.11L214.32-6.15L213.61-6.15L213.64-6.46L214.37-6.46L214.37-6.46Q215.63-6.46 216.22-6.56L216.22-6.56L216.46-6.61L215.29-0.19L215.29-0.19Q215.80-0.24 216.14-0.66L216.14-0.66L216.39-0.46" fill="#3be8b0" stroke="none" stroke-width="none" transform="translate(-126.31997680664062,4.102432197122022)" style="fill: rgb(252, 99, 107);"></path></g><g class="path" style="transform: matrix(1, 0, 0, 1, 0, 14.925); opacity: 0.05; transform-origin: 89.455px -5.01757px; animation: 1s linear 0.485294s 1 normal forwards running float-btt-in-8f38c175-93f2-4bf1-870c-e0baf4360913;"><path d="M214.90-8.25L214.90-8.25L214.90-8.25Q214.54-8.60 214.54-9.11L214.54-9.11L214.54-9.11Q214.54-9.62 214.90-9.99L214.90-9.99L214.90-9.99Q215.25-10.35 215.76-10.35L215.76-10.35L215.76-10.35Q216.27-10.35 216.64-9.99L216.64-9.99L216.64-9.99Q217.01-9.62 217.01-9.11L217.01-9.11L217.01-9.11Q217.01-8.60 216.64-8.25L216.64-8.25L216.64-8.25Q216.27-7.89 215.76-7.89L215.76-7.89L215.76-7.89Q215.25-7.89 214.90-8.25" fill="#3be8b0" stroke="none" stroke-width="none" transform="translate(-126.31997680664062,4.102432197122022)" style="fill: rgb(59, 232, 176);"></path></g><g class="path" style="transform: matrix(1, 0, 0, 1, 0, 14.925); opacity: 0.05; transform-origin: 93.47px 0.477432px; animation: 1s linear 0.504706s 1 normal forwards running float-btt-in-8f38c175-93f2-4bf1-870c-e0baf4360913;"><path d="M218.96-0.29L218.96-0.29L218.96-0.29Q220.64-0.29 220.64-2.77L220.64-2.77L220.64-2.77Q220.64-3.38 220.46-4.22L220.46-4.22L220.46-4.22Q220.29-5.05 220.25-5.25L220.25-5.25L220.25-5.25Q219.22-4.18 217.92-3.96L217.92-3.96L217.92-4.37L217.92-4.37Q219.15-4.64 220.22-5.76L220.22-5.76L220.22-5.83L220.22-5.83Q220.22-6.24 220.34-6.63L220.34-6.63L220.34-6.63Q220.46-7.02 220.58-7.21L220.58-7.21L220.69-7.40L221.10-7.40L221.10-7.40Q221.10-6.65 221.34-6.03L221.34-6.03L221.34-6.03Q221.58-5.41 221.87-5.02L221.87-5.02L221.87-5.02Q222.16-4.64 222.39-4.02L222.39-4.02L222.39-4.02Q222.63-3.40 222.63-2.65L222.63-2.65L222.63-2.65Q222.63-1.45 221.72-0.65L221.72-0.65L221.72-0.65Q220.81 0.15 219.54 0.15L219.54 0.15L219.54 0.15Q218.26 0.15 217.61-0.43L217.61-0.43L217.61-0.43Q216.95-1.00 216.95-1.76L216.95-1.76L216.95-1.76Q216.95-2.52 217.33-2.85L217.33-2.85L217.33-2.85Q217.70-3.18 218.21-3.18L218.21-3.18L218.21-3.18Q218.72-3.18 219.05-2.85L219.05-2.85L219.05-2.85Q219.39-2.52 219.39-2.00L219.39-2.00L219.39-2.00Q219.39-1.48 219.06-1.12L219.06-1.12L219.06-1.12Q218.74-0.77 218.23-0.77L218.23-0.77L218.23-0.77Q218.01-0.77 217.77-0.83L217.77-0.83L217.77-0.83Q218.14-0.29 218.96-0.29" fill="#3be8b0" stroke="none" stroke-width="none" transform="translate(-126.31997680664062,4.102432197122022)" style="fill: rgb(26, 175, 208);"></path></g><g class="path" style="transform: matrix(1, 0, 0, 1, 0, 14.925); opacity: 0.05; transform-origin: 98.94px 0.872432px; animation: 1s linear 0.524118s 1 normal forwards running float-btt-in-8f38c175-93f2-4bf1-870c-e0baf4360913;"><path d="M226.68-0.46L226.68-0.46Q226.17 0.15 225.40 0.15L225.40 0.15L225.40 0.15Q224.64 0.15 224.20-0.24L224.20-0.24L224.20-0.24Q223.77-0.63 223.77-1.26L223.77-1.26L223.77-1.26Q223.77-1.48 224.04-3.11L224.04-3.11L224.60-6.15L223.89-6.15L223.92-6.46L224.66-6.46L224.66-6.46Q225.91-6.46 226.51-6.56L226.51-6.56L226.75-6.61L225.57-0.19L225.57-0.19Q226.08-0.24 226.42-0.66L226.42-0.66L226.68-0.46" fill="#3be8b0" stroke="none" stroke-width="none" transform="translate(-126.31997680664062,4.102432197122022)" style="fill: rgb(106, 103, 206);"></path></g><g class="path" style="transform: matrix(1, 0, 0, 1, 0, 14.925); opacity: 0.05; transform-origin: 99.74px -5.01757px; animation: 1s linear 0.543529s 1 normal forwards running float-btt-in-8f38c175-93f2-4bf1-870c-e0baf4360913;"><path d="M225.18-8.25L225.18-8.25L225.18-8.25Q224.83-8.60 224.83-9.11L224.83-9.11L224.83-9.11Q224.83-9.62 225.18-9.99L225.18-9.99L225.18-9.99Q225.54-10.35 226.05-10.35L226.05-10.35L226.05-10.35Q226.56-10.35 226.92-9.99L226.92-9.99L226.92-9.99Q227.29-9.62 227.29-9.11L227.29-9.11L227.29-9.11Q227.29-8.60 226.92-8.25L226.92-8.25L226.92-8.25Q226.56-7.89 226.05-7.89L226.05-7.89L226.05-7.89Q225.54-7.89 225.18-8.25" fill="#3be8b0" stroke="none" stroke-width="none" transform="translate(-126.31997680664062,4.102432197122022)" style="fill: rgb(255, 185, 0);"></path></g><g class="path" style="transform: matrix(1, 0, 0, 1, 0, 14.925); opacity: 0.05; transform-origin: 103.995px -0.387568px; animation: 1s linear 0.562941s 1 normal forwards running float-btt-in-8f38c175-93f2-4bf1-870c-e0baf4360913;"><path d="M227.83-6.46L228.70-6.46L229.16-8.98L229.16-8.98Q230.42-8.98 231.03-9.08L231.03-9.08L231.25-9.13L231.25-9.13Q231.01-7.94 230.72-6.46L230.72-6.46L232.83-6.46L232.80-6.15L230.67-6.15L230.67-6.15Q229.82-1.77 229.82-0.87L229.82-0.87L229.82-0.87Q229.82-0.32 230.40-0.32L230.40-0.32L230.40-0.32Q230.98-0.32 231.46-1.05L231.46-1.05L231.46-1.05Q231.93-1.79 232.14-2.64L232.14-2.64L232.44-2.53L232.44-2.53Q231.81 0.15 229.84 0.15L229.84 0.15L229.84 0.15Q229.02 0.15 228.48-0.30L228.48-0.30L228.48-0.30Q227.94-0.75 227.94-1.56L227.94-1.56L227.94-1.56Q227.94-2.36 228.63-6.15L228.63-6.15L227.80-6.15L227.83-6.46" fill="#3be8b0" stroke="none" stroke-width="none" transform="translate(-126.31997680664062,4.102432197122022)" style="fill: rgb(252, 99, 107);"></path></g><g class="path" style="transform: matrix(1, 0, 0, 1, 0, 14.925); opacity: 0.05; transform-origin: 108.525px 0.872432px; animation: 1s linear 0.582353s 1 normal forwards running float-btt-in-8f38c175-93f2-4bf1-870c-e0baf4360913;"><path d="M236.27-0.46L236.27-0.46Q235.76 0.15 234.99 0.15L234.99 0.15L234.99 0.15Q234.23 0.15 233.79-0.24L233.79-0.24L233.79-0.24Q233.36-0.63 233.36-1.26L233.36-1.26L233.36-1.26Q233.36-1.48 233.63-3.11L233.63-3.11L234.19-6.15L233.48-6.15L233.51-6.46L234.24-6.46L234.24-6.46Q235.50-6.46 236.10-6.56L236.10-6.56L236.33-6.61L235.16-0.19L235.16-0.19Q235.67-0.24 236.01-0.66L236.01-0.66L236.27-0.46" fill="#3be8b0" stroke="none" stroke-width="none" transform="translate(-126.31997680664062,4.102432197122022)" style="fill: rgb(59, 232, 176);"></path></g><g class="path" style="transform: matrix(1, 0, 0, 1, 0, 14.925); opacity: 0.05; transform-origin: 109.325px -5.01757px; animation: 1s linear 0.601765s 1 normal forwards running float-btt-in-8f38c175-93f2-4bf1-870c-e0baf4360913;"><path d="M234.77-8.25L234.77-8.25L234.77-8.25Q234.41-8.60 234.41-9.11L234.41-9.11L234.41-9.11Q234.41-9.62 234.77-9.99L234.77-9.99L234.77-9.99Q235.13-10.35 235.64-10.35L235.64-10.35L235.64-10.35Q236.15-10.35 236.51-9.99L236.51-9.99L236.51-9.99Q236.88-9.62 236.88-9.11L236.88-9.11L236.88-9.11Q236.88-8.60 236.51-8.25L236.51-8.25L236.51-8.25Q236.15-7.89 235.64-7.89L235.64-7.89L235.64-7.89Q235.13-7.89 234.77-8.25" fill="#3be8b0" stroke="none" stroke-width="none" transform="translate(-126.31997680664062,4.102432197122022)" style="fill: rgb(26, 175, 208);"></path></g><g class="path" style="transform: matrix(1, 0, 0, 1, 0, 14.925); opacity: 0.05; transform-origin: 114.785px 0.872432px; animation: 1s linear 0.621176s 1 normal forwards running float-btt-in-8f38c175-93f2-4bf1-870c-e0baf4360913;"><path d="M243.81-0.19L243.81-0.19L243.81-0.19Q244.22-0.19 244.66-0.66L244.66-0.66L244.92-0.46L244.92-0.46Q244.80-0.22 244.39-0.03L244.39-0.03L244.39-0.03Q243.98 0.15 243.49 0.15L243.49 0.15L243.49 0.15Q241.94 0.15 241.94-1.24L241.94-1.24L241.94-1.24Q241.94-1.84 242.25-3.37L242.25-3.37L242.25-3.37Q242.56-4.90 242.56-5.37L242.56-5.37L242.56-5.37Q242.56-6.10 241.86-6.10L241.86-6.10L241.86-6.10Q241.30-6.10 240.78-5.37L240.78-5.37L240.78-5.37Q240.26-4.64 239.92-3.37L239.92-3.37L239.34-0.19L239.34-0.19Q239.87-0.24 240.21-0.66L240.21-0.66L240.47-0.46L240.47-0.46Q239.96 0.15 239.19 0.15L239.19 0.15L239.19 0.15Q238.43 0.15 237.99-0.24L237.99-0.24L237.99-0.24Q237.56-0.63 237.56-1.26L237.56-1.26L237.56-1.26Q237.56-1.50 237.83-3.13L237.83-3.13L238.39-6.27L238.39-6.27Q237.88-6.22 237.54-5.80L237.54-5.80L237.29-6.00L237.29-6.00Q237.80-6.61 238.57-6.61L238.57-6.61L238.57-6.61Q239.34-6.61 239.77-6.22L239.77-6.22L239.77-6.22Q240.19-5.83 240.19-5.12L240.19-5.12L240.19-5.02L240.19-5.02Q240.89-6.61 242.37-6.61L242.37-6.61L242.37-6.61Q243.37-6.61 243.93-6.04L243.93-6.04L243.93-6.04Q244.49-5.47 244.49-4.47L244.49-4.47L244.49-4.47Q244.49-3.94 244.17-2.44L244.17-2.44L244.17-2.44Q243.85-0.94 243.81-0.19" fill="#3be8b0" stroke="none" stroke-width="none" transform="translate(-126.31997680664062,4.102432197122022)" style="fill: rgb(106, 103, 206);"></path></g><g class="path" style="transform: matrix(1, 0, 0, 1, 0, 14.925); opacity: 0.05; transform-origin: 122.83px 2.36243px; animation: 1s linear 0.640588s 1 normal forwards running float-btt-in-8f38c175-93f2-4bf1-870c-e0baf4360913;"><path d="M251.31 1.85L251.31 1.85L251.31 1.85Q251.92 1.85 252.37 1.38L252.37 1.38L252.60 1.58L252.60 1.58Q252.20 2.16 251.31 2.16L251.31 2.16L251.31 2.16Q250.94 2.16 250.55 2.07L250.55 2.07L250.55 2.07Q249.39 3.13 247.59 3.13L247.59 3.13L247.59 3.13Q246.52 3.13 245.93 2.76L245.93 2.76L245.93 2.76Q245.34 2.40 245.34 1.81L245.34 1.81L245.34 1.81Q245.34 1.22 245.71 0.88L245.71 0.88L245.71 0.88Q246.08 0.53 247.01 0.53L247.01 0.53L247.01 0.53Q247.95 0.53 249.48 1.29L249.48 1.29L250.00-1.53L250.00-1.53Q249.24-0.12 248.03-0.12L248.03-0.12L248.03-0.12Q245.72-0.12 245.72-2.40L245.72-2.40L245.72-2.40Q245.72-4.30 246.68-5.46L246.68-5.46L246.68-5.46Q247.64-6.61 249.14-6.61L249.14-6.61L249.14-6.61Q250.00-6.61 250.48-6.09L250.48-6.09L250.48-6.09Q250.61-5.93 250.75-5.63L250.75-5.63L250.90-6.46L250.90-6.46Q252.16-6.46 252.74-6.56L252.74-6.56L252.96-6.61L251.84-0.34L251.84-0.34Q251.58 0.99 250.82 1.80L250.82 1.80L250.82 1.80Q251.04 1.85 251.31 1.85zM247.64-1.87L247.64-1.87Q247.64-1.09 247.79-0.82L247.79-0.82L247.79-0.82Q247.95-0.56 248.37-0.56L248.37-0.56L248.37-0.56Q248.80-0.56 249.24-1.02L249.24-1.02L249.24-1.02Q249.68-1.48 249.87-1.88L249.87-1.88L249.87-1.88Q250.07-2.28 250.21-2.65L250.21-2.65L250.56-4.61L250.56-4.73L250.56-4.73Q250.56-6.29 249.14-6.29L249.14-6.29L249.14-6.29Q248.59-6.29 248.12-4.81L248.12-4.81L248.12-4.81Q247.64-3.33 247.64-1.87L247.64-1.87zM247.52 2.79L247.52 2.79L247.52 2.79Q248.88 2.79 249.36 1.62L249.36 1.62L249.12 1.50L249.12 1.50Q248.91 1.39 248.87 1.37L248.87 1.37L248.87 1.37Q248.83 1.34 248.64 1.26L248.64 1.26L248.64 1.26Q248.46 1.17 248.37 1.15L248.37 1.15L248.37 1.15Q248.29 1.12 248.11 1.05L248.11 1.05L248.11 1.05Q247.93 0.99 247.81 0.96L247.81 0.96L247.81 0.96Q247.69 0.94 247.54 0.90L247.54 0.90L247.54 0.90Q247.28 0.85 246.79 0.85L246.79 0.85L246.79 0.85Q246.30 0.85 246.00 1.09L246.00 1.09L246.00 1.09Q245.70 1.33 245.70 1.79L245.70 1.79L245.70 1.79Q245.70 2.24 246.19 2.52L246.19 2.52L246.19 2.52Q246.69 2.79 247.52 2.79" fill="#3be8b0" stroke="none" stroke-width="none" transform="translate(-126.31997680664062,4.102432197122022)" style="fill: rgb(255, 185, 0);"></path></g></g>
</g>
</g>
<style id="float-btt-in-8f38c175-93f2-4bf1-870c-e0baf4360913" data-anikit="">@keyframes float-btt-in-8f38c175-93f2-4bf1-870c-e0baf4360913
{
  0% {
    animation-timing-function: cubic-bezier(0.2242,0.7499,0.3142,0.8148);
    transform: translate(0px,14.925px) rotate(0deg) scale(1,1) skewX(0deg) skewY(0deg);
    opacity: 0.05;
  }
  100% {
    transform: translate(0px,0px) rotate(0deg) scale(1,1) skewX(0deg) skewY(0deg);
    opacity: 1;
  }
}</style></svg>